<?xml version="1.0" standalone="no"?><!DOCTYPE svg PUBLIC "-//W3C//DTD SVG 1.1//EN" "http://www.w3.org/Graphics/SVG/1.1/DTD/svg11.dtd"><svg t="1553008375037" class="icon" style="" viewBox="0 0 1025 1024" version="1.1" xmlns="http://www.w3.org/2000/svg" p-id="2325" xmlns:xlink="http://www.w3.org/1999/xlink" width="200.1953125" height="200"><defs><style type="text/css"></style></defs><path d="M512.524 992c-264.676 0-480-215.324-480-480 0-264.654 215.324-480 480-480s480 215.346 480 480c0 264.676-215.324 480-480 480zM512.524 73.738c-241.658 0-438.262 196.604-438.262 438.262s196.604 438.284 438.262 438.284 438.262-196.626 438.262-438.284-196.582-438.262-438.262-438.262zM845.622 834.734c-5.586 0-11.171-2.138-15.426-6.393l-635.454-635.454c-8.531-8.531-8.531-22.32 0-30.851s22.32-8.531 30.851 0l635.454 635.454c8.531 8.531 8.531 22.32 0 30.851-4.254 4.254-9.84 6.393-15.426 6.393z" p-id="2326" fill="#d81e06"></path></svg>